<?xml version="1.0" encoding="UTF-8" standalone="no"?>
<!-- Created with Inkscape (http://www.inkscape.org/) -->

<svg
   width="512"
   height="512"
   viewBox="0 0 512 512"
   version="1.1"
   id="svg1"
   xml:space="preserve"
   xmlns="http://www.w3.org/2000/svg"
   xmlns:svg="http://www.w3.org/2000/svg"><path fill="#328ee7" stroke-linecap="round" stroke-linejoin="round"
       d="M 154.55665 -0.82374844 C 102.86866 -0.82374844 60.539642 41.505144 60.539641 93.193131 L 60.539641 383.59091 C 60.539641 424.1079 85.682966 460.55443 123.56162 474.93616 L 185.59492 498.4882 C 211.514 508.32914 240.76703 503.94923 262.66522 486.94592 L 292.83698 463.51752 C 291.11408 464.8553 298.25786 462.70056 297.4383 462.59801 C 313.56813 464.61646 342.68969 466.93219 371.32076 456.86068 C 399.95183 446.78916 427.69073 418.91386 428.06103 374.47879 A 20 20 0 0 0 408.22722 354.31314 A 20 20 0 0 0 388.06071 374.1446 C 387.80667 404.62864 376.04445 412.79659 358.04684 419.12759 C 340.04924 425.45858 315.41558 424.53626 302.40427 422.90804 C 289.65496 421.31261 279.52543 423.21054 268.3041 431.92357 L 238.13234 455.35004 C 227.20486 463.8349 212.72757 466.00392 199.79361 461.09316 L 137.76219 437.54113 C 115.29399 429.01042 100.53996 407.62408 100.53996 383.59091 L 100.53996 93.193131 C 100.53996 79.070385 105.86665 66.340882 114.58453 56.765913 A 20 20 0 0 0 118.49227 59.271407 L 237.97633 106.1282 C 252.72131 111.91054 262.34363 125.97161 262.39456 141.80976 L 263.03551 340.62661 A 20 20 0 0 0 283.10052 360.56239 A 20 20 0 0 0 303.03583 340.49718 L 302.39488 141.6842 C 302.29159 109.56066 282.48546 80.619543 252.57915 68.891577 L 176.80579 39.175296 L 332.58355 39.175296 C 362.188 39.175296 385.76005 62.744507 385.76005 92.348952 L 385.76005 124.25971 A 20 20 0 0 0 405.75927 144.25924 A 20 20 0 0 0 425.76037 124.25971 L 425.76037 92.348952 C 425.76037 41.126946 383.80556 -0.82374844 332.58355 -0.82374844 L 154.55665 -0.82374844 z "
       transform="matrix(1.039103,0,0,1.0110593,2.1477649,1.7996554)" /></svg>
